<?xml version="1.0" standalone="no"?>
<!DOCTYPE svg PUBLIC "-//W3C//DTD SVG 20010904//EN"
 "http://www.w3.org/TR/2001/REC-SVG-20010904/DTD/svg10.dtd">
<svg version="1.0" xmlns="http://www.w3.org/2000/svg"
 width="608.000000pt" height="608.000000pt" viewBox="0 0 608.000000 608.000000"
 preserveAspectRatio="xMidYMid meet">
<metadata>
Created by potrace 1.14, written by Peter Selinger 2001-2017
</metadata>
<g transform="translate(0.000000,608.000000) scale(0.100000,-0.100000)"
fill="#000000" stroke="none">
<path d="M1345 6055 l-25 -24 0 -1196 0 -1195 -375 0 -376 0 -24 -25 -25 -24
0 -551 0 -551 25 -24 24 -25 369 0 369 0 6 -67 c4 -38 7 -576 7 -1196 l0
-1128 25 -24 24 -25 551 0 551 0 24 25 25 24 0 1128 c0 620 3 1158 7 1196 l6
67 807 0 808 0 6 -22 c3 -13 6 -551 6 -1196 l0 -1173 25 -24 24 -25 551 0 551
0 24 25 25 24 0 1158 c0 637 3 1175 6 1196 l7 37 69 0 c60 0 72 3 93 25 l25
24 0 551 0 551 -25 24 c-21 22 -33 25 -100 25 l-75 0 0 1195 0 1196 -25 24
-24 25 -551 0 -551 0 -24 -25 -25 -24 0 -1196 0 -1195 -820 0 -820 0 0 1195 0
1196 -25 24 -24 25 -551 0 -551 0 -24 -25z"/>
</g>
</svg>
